<svg xmlns="http://www.w3.org/2000/svg" width="80" height="80" fill="none" viewBox="0 0 80 80"><g clip-path="url(#a)"><path fill="#FCC83F" d="m45.432 92.733 1.95-.014c2.156-.013 4.31-.011 6.465-.01a3244.276 3244.276 0 0 1 17.233-.044c2.624 0 5.248-.005 7.872-.01 9.157-.019 18.313-.027 27.47-.026 8.531.002 17.062-.02 25.592-.051a5879.01 5879.01 0 0 1 21.983-.036c4.375 0 8.749-.005 13.124-.026 4.117-.02 8.233-.02 12.349-.005 1.508.002 3.016-.003 4.524-.015C198.18 92.39 198.18 92.39 204 97c2.458 2.934 2.959 4.62 3.375 8.438-.409 3.883-1.467 6.186-3.375 9.562a203.355 203.355 0 0 0-2 5l1.758.297c8.618 1.65 14.255 5.503 19.242 12.703 5.9 9.359 5.418 22.055 3.27 32.578A68.7 68.7 0 0 1 223 174l-1.062 2.375c-6.503 13.005-18.419 23.012-31.942 28.031-3.144 2.51-3.367 5.812-3.996 9.594l-.458 2.755c-.653 4.1-1.277 8.204-1.866 12.313-1.265 8.118-2.902 16.409-9.551 21.87l-1.93 1.652c-5.468 3.512-10.823 3.704-17.103 3.685l-2.653.015c-2.883.014-5.767.013-8.65.011l-6.037.013c-4.215.007-8.43.007-12.645.002-5.389-.006-10.777.011-16.166.034-4.156.015-8.311.016-12.467.013-1.986 0-3.973.005-5.959.015-2.783.013-5.565.006-8.349-.006l-2.462.023c-6.566-.059-11.71-1.585-17.391-5.02-7.125-7.317-8.526-15.938-9.954-25.746-.213-1.373-.427-2.745-.644-4.117-.56-3.583-1.1-7.168-1.636-10.754-.656-4.375-1.334-8.747-2.012-13.118-.526-3.396-1.048-6.793-1.557-10.191l-.558-3.673-.486-3.242c-.341-2.516-.341-2.516-1.466-4.534-.534-3.63-.962-7.268-1.402-10.91-.371-2.794-.894-5.499-1.54-8.242-1.663-7.215-2.526-14.573-3.558-21.899-1.166-11.561-1.166-11.561-5.625-21.949-2.53-4.049-2.85-7.34-1.875-12 3.546-6.602 8.325-8.247 15.432-8.267Z"/><path fill="#060403" d="m45.432 92.733 1.95-.014c2.156-.013 4.31-.011 6.465-.01a3244.276 3244.276 0 0 1 17.233-.044c2.624 0 5.248-.005 7.872-.01 9.157-.019 18.313-.027 27.47-.026 8.531.002 17.062-.02 25.592-.051a5879.01 5879.01 0 0 1 21.983-.036c4.375 0 8.749-.005 13.124-.026 4.117-.02 8.233-.02 12.349-.005 1.508.002 3.016-.003 4.524-.015C198.18 92.39 198.18 92.39 204 97c2.458 2.934 2.959 4.62 3.375 8.438-.409 3.883-1.467 6.186-3.375 9.562a203.355 203.355 0 0 0-2 5l1.758.297c8.618 1.65 14.255 5.503 19.242 12.703 5.9 9.359 5.418 22.055 3.27 32.578A68.7 68.7 0 0 1 223 174l-1.062 2.375c-6.503 13.005-18.419 23.012-31.942 28.031-3.144 2.51-3.367 5.812-3.996 9.594l-.458 2.755c-.653 4.1-1.277 8.204-1.866 12.313-1.265 8.118-2.902 16.409-9.551 21.87l-1.93 1.652c-5.468 3.512-10.823 3.704-17.103 3.685l-2.653.015c-2.883.014-5.767.013-8.65.011l-6.037.013c-4.215.007-8.43.007-12.645.002-5.389-.006-10.777.011-16.166.034-4.156.015-8.311.016-12.467.013-1.986 0-3.973.005-5.959.015-2.783.013-5.565.006-8.349-.006l-2.462.023c-6.566-.059-11.71-1.585-17.391-5.02-7.125-7.317-8.526-15.938-9.954-25.746-.213-1.373-.427-2.745-.644-4.117-.56-3.583-1.1-7.168-1.636-10.754-.656-4.375-1.334-8.747-2.012-13.118-.526-3.396-1.048-6.793-1.557-10.191l-.558-3.673-.486-3.242c-.341-2.516-.341-2.516-1.466-4.534-.534-3.63-.962-7.268-1.402-10.91-.371-2.794-.894-5.499-1.54-8.242-1.663-7.215-2.526-14.573-3.558-21.899-1.166-11.561-1.166-11.561-5.625-21.949-2.53-4.049-2.85-7.34-1.875-12 3.546-6.602 8.325-8.247 15.432-8.267ZM45 119l6 38 2 15a481.46 481.46 0 0 0 2 10.688c1.734 8.756 3.247 17.535 4.64 26.353.583 3.69 1.186 7.376 1.8 11.061.25 1.525.493 3.051.73 4.578.348 2.243.721 4.48 1.1 6.718l.3 2.046c.924 5.233 2.821 7.846 6.43 11.556 3.293 1.647 6.956 1.165 10.577 1.177l2.691.02c2.947.02 5.894.031 8.841.041l3.048.013c5.324.021 10.647.035 15.971.044 5.499.011 10.998.046 16.497.085 4.228.027 8.455.035 12.683.038 2.027.005 4.054.017 6.081.036 2.839.024 5.677.023 8.516.016l2.532.039c5.27-.047 8.615-.69 12.563-4.509 3.098-6.079 3.903-13.176 4.977-19.841l.529-3.166c.57-3.428 1.13-6.857 1.689-10.286l1.191-7.182c1.042-6.285 2.075-12.571 3.106-18.858 1.051-6.397 2.11-12.793 3.168-19.188 1.708-10.326 3.41-20.652 5.107-30.979l.45-2.739.387-2.361c.462-2.801.929-5.6 1.396-8.4H45Z"/><path fill="#FBB237" d="M46 120h135l-1 15h-1l-2-6H64l2 2c.527 2.695.527 2.695.938 6.125a245.313 245.313 0 0 0 2.562 15.813 230.312 230.312 0 0 1 2.5 15.687c.583 4.616 1.329 9.092 2.375 13.625 1.881 8.308 3.005 16.724 4.18 25.157.998 7.093.998 7.093 2.554 14.077.794 3.132 1.134 5.682 1.079 8.891l-.02 2.523C82 235 82 235 81 237c9.97.046 19.941.082 29.911.104 4.63.01 9.26.024 13.889.047 4.468.022 8.935.034 13.402.039 1.705.003 3.41.011 5.115.021 2.387.015 4.774.017 7.161.016l2.138.022c3.633-.015 6.294-.258 9.384-2.249-.875 6.75-.875 6.75-2 9h-2v2c-11.109.116-22.218.205-33.328.259-5.159.026-10.318.062-15.476.118-4.98.055-9.96.084-14.94.097-1.898.01-3.796.028-5.695.055-2.662.036-5.323.041-7.985.039l-2.372.054c-4.02-.038-6.483-.447-9.671-3-2.73-2.827-3.46-4.189-4.158-7.997l-.66-3.426c-.24-1.399-.478-2.799-.715-4.199-.331-1.848-.663-3.695-.996-5.543A1571.51 1571.51 0 0 1 58 198.875c-.564-3.449-1.19-6.88-1.867-10.309-2.207-11.204-4.07-22.418-5.694-33.722-1.069-7.424-2.222-14.824-3.576-22.202C46.088 128.249 46 124.575 46 120Z"/><path fill="#F49B26" d="M45 119h147l-6 36c-1.359 8.289-1.359 8.289-2.712 16.579a6748.15 6748.15 0 0 1-3.05 18.532c-.769 4.65-1.532 9.3-2.284 13.952-.747 4.615-1.507 9.228-2.278 13.838a920.155 920.155 0 0 0-.844 5.194 760.771 760.771 0 0 1-1.188 7.176l-.325 2.115c-.922 5.266-2.784 9.755-7.194 12.989-2.763.813-5.263.755-8.125.625v-2h2c1.449-7.799 2.892-15.6 4.333-23.4.59-3.186 1.186-6.369 1.784-9.553 1.747-9.36 3.308-18.713 4.596-28.148 1.281-9.202 2.817-18.361 4.349-27.524l.394-2.36c1.314-7.856 2.637-15.708 4.112-23.536.549-3.148.98-6.316 1.432-9.479l-136 1v-2Z"/><path fill="#7E5551" d="m47.915 101.866 3.897-.013 4.315.002 4.512-.01c4.098-.009 8.195-.012 12.292-.012 3.414-.001 6.83-.005 10.244-.008 8.053-.009 16.106-.011 24.159-.01 8.32 0 16.64-.01 24.96-.026 7.132-.013 14.264-.018 21.396-.018 4.265 0 8.53-.002 12.794-.013 4.01-.01 8.019-.01 12.029-.003 1.474.002 2.949-.001 4.424-.007 2.007-.008 4.014-.002 6.021.005l3.409-.002C195 102 195 102 197 104c-.556 4.556-.556 4.556-2 6-1.97.101-3.943.131-5.915.134l-3.897.013-4.315-.002-4.513.01c-4.097.009-8.194.012-12.291.012-3.414.001-6.829.005-10.244.008-8.053.009-16.106.011-24.159.01-8.32 0-16.64.01-24.96.026-7.132.013-14.264.018-21.397.018-4.264 0-8.529.002-12.793.013-4.01.01-8.02.01-12.029.003-1.474-.002-2.949.001-4.424.007a805.64 805.64 0 0 1-6.02-.005l-3.41.002C42 110 42 110 40 108c.755-6.19 1.928-6.125 7.915-6.134Z"/><path fill="#FDFCF7" d="M61.563 128.187C64 129 64 129 66 131c.527 2.695.527 2.695.938 6.125a245.17 245.17 0 0 0 2.562 15.812 230.44 230.44 0 0 1 2.5 15.688c.583 4.616 1.329 9.092 2.375 13.625 1.881 8.308 3.005 16.724 4.18 25.157.998 7.093.998 7.093 2.554 14.077.794 3.132 1.134 5.682 1.079 8.891l-.02 2.523C82 235 82 235 81 237c-2.875.125-2.875.125-6 0-2.674-2.674-2.626-4.615-3.219-8.336l-.637-3.918-.644-4.121-.644-4.004a3399.8 3399.8 0 0 1-1.26-7.878c-1.209-7.591-2.42-15.163-4.034-22.681-1.44-7.059-2.46-14.142-3.432-21.28a233.263 233.263 0 0 0-2.755-15.907C55.623 135.555 55.623 135.555 56 131c1.877-2.549 2.333-3.049 5.563-2.813Z"/><path fill="#080603" d="M93.313 173.75C97 175 97 175 98.323 177.09c.802 1.772 1.594 3.55 2.375 5.332 2.637 5.226 6.939 8.198 12.239 10.453 7.114 2.281 12.919 1.456 19.664-1.48 5.298-3.081 8.915-7.561 10.898-13.333L145 175c3.562-1.062 3.562-1.062 7-1 2 2 2 2 2 5-1.422 7.847-6.706 14.665-12.832 19.527-8.882 6.034-18.689 6.93-29.168 5.473-3.828-1.113-6.776-2.676-10-5l-2.203-1.574c-5.977-4.748-10.34-10.745-11.734-18.364L88 176c2-2 2-2 5.313-2.25Z"/><path fill="#090909" d="M118.562.625C121 1 121 1 123 3a68.46 68.46 0 0 1-.312 4.938c-.138 5.03.891 7.494 3.812 11.562 3.434 4.842 4.214 8.11 3.941 13.992-.477 2.71-1.405 4.966-2.441 7.508-1.049 5.526-.221 9.225 2.938 13.875l1.652 2.18c2.788 3.846 2.782 7.33 2.41 11.945-1.423 4.12-2.896 7.896-6 11-2.5.25-2.5.25-5 0-2-2-2-2-2.25-4.375C122 73 122 73 123 71.125c1.558-3.31 1.484-5.497 1-9.125-1.375-2.27-2.895-4.261-4.59-6.3-3.704-4.465-2.835-10.181-2.41-15.7.777-2.513 1.836-4.624 3-7 .488-4.224-.481-6.284-2.938-9.688-3.148-4.428-4.231-6.673-4.312-12.187l-.078-3.18c.462-4.15 1.579-6.689 5.89-7.32Z"/><path fill="#EE9626" d="M199 130c4.805.115 8.038.227 11.875 3.312L213 136l1.688 1.938c4.481 7.042 4.328 16.056 2.687 24.062-3.926 12.901-11.634 22.858-22.937 30.188C191 194 191 194 189 194c-.247-3.547-.074-6.596 1-10 2.268-2.359 4.691-4.109 7.356-6.004C203.445 173.4 208.611 166.621 210 159c1.007-8.507 1.007-8.507-1.523-16.297L207 141v-2l-2.875-.938C201 137 201 137 199 136v-6Z"/><path fill="#0B0B0B" d="M148 19c3.257.418 4.634.634 7 3-.051 1.996-.051 1.996-.313 4.438-.144 4.792 1.021 7.082 3.813 10.937 4.065 5.773 4.662 10.704 3.5 17.625l-1.035 2c-1.275 2.642-1.092 4.65-.965 7.563.222 5.105.222 5.105-2 8.437-2.438.438-2.438.438-5 0-2.996-3.103-3.92-5.961-4.25-10.25.25-3.75.25-3.75 1.812-7.25 1.731-4.214 1.683-6.141.438-10.5-1.168-1.86-2.448-3.577-3.789-5.316-3.234-4.497-3.701-9.29-3.211-14.684 1.156-2.313 2.174-4.174 4-6Z"/><path fill="#080808" d="M90.75 23.25 93 24c.577 3.295 1.013 6.398 1.125 9.75.422 3.906 2.014 5.958 4.438 9 3.575 4.807 4.373 8.32 3.996 14.27-.891 4.75-2.4 9.26-5.559 12.98-2.559.836-2.559.836-5 1-1.875-1.063-1.875-1.063-3-3 .194-3.031.634-5.311 2.063-8 1.332-2.842 1.201-4.877.937-8-1.449-2.946-1.449-2.946-3.438-5.688C84.132 39.84 83.16 34.81 84 27c2.069-3.371 2.79-4.11 6.75-3.75Z"/><path fill="#44302E" d="M42 102c19.914-.047 39.828-.082 59.743-.104 9.246-.01 18.491-.024 27.737-.047 8.057-.02 16.113-.033 24.17-.037 4.268-.003 8.536-.009 12.804-.023 4.013-.014 8.027-.018 12.04-.015 1.477-.001 2.953-.005 4.429-.012 2.009-.01 4.019-.007 6.028-.003l3.413-.005C195 102 195 102 197 104c-.556 4.556-.556 4.556-2 6a118.38 118.38 0 0 1-5.929.12l-3.905.004-4.324-.01h-4.523c-4.105 0-8.21-.006-12.316-.013-4.285-.006-8.571-.006-12.856-.008-8.121-.003-16.242-.011-24.363-.021-9.242-.011-18.485-.017-27.728-.022-19.019-.01-38.037-.028-57.056-.05v-1h143v-6H42v-1Z"/><path fill="#090704" d="M153 139c4.244 1.481 7.956 3.913 10 8 .312 3.125.312 3.125 0 6l-2 2c-2.875-.063-2.875-.063-6-1l-1.938-2.625L151 149c-3.557-.325-3.557-.325-7 1-2.452 2.416-2.452 2.416-4 5-4.75-.75-4.75-.75-7-3 .089-4.018.725-5.682 3.375-8.75 5.539-4.748 9.514-5.064 16.625-4.25Z"/><path fill="#090604" d="M101.164 139.762c3.338 1.797 6.248 3.764 7.836 7.238-.312 3.75-.312 3.75-1 7l-6 1-1.562-2.437c-2.293-2.799-2.293-2.799-5.813-3.75-4.014.207-4.237.408-6.75 3.187l-1.457 1.691C85 155 85 155 82.188 154.938 80 154 80 154 79 153c-.42-3.693-.311-5.505 1.688-8.687 5.762-5.763 12.592-7.326 20.476-4.551Z"/><path fill="#EBEBEB" d="M197 146c3.875.875 3.875.875 5 2 .911 8.351-2.451 14.176-7 21h-2c.473-3.459.955-6.917 1.438-10.375l.408-2.984.4-2.852.365-2.634C196 148 196 148 197 146Z"/><path fill="#583632" d="M185 103h11l1 5c-1 1-1 1-3.504 1.098l-3.058-.036-3.067-.027L185 109v-6Z"/><path fill="#C27C2E" d="M190 184h1l1 9-3 1 1-10Z"/></g><defs><clipPath id="a"><path fill="#fff" d="M0 0h256v256H0z"/></clipPath></defs></svg>