<svg width="30" height="33" viewBox="0 0 61 68" fill="none" xmlns="http://www.w3.org/2000/svg">
    <path
        d="M16.9107 0.678401C17.5671 0.667517 18.2235 0.656633 18.8997 0.64542C21.9281 0.615272 24.9565 0.587431 27.985 0.571867C29.5774 0.560694 31.1697 0.542267 32.7619 0.516284C35.062 0.478936 37.3613 0.46431 39.6616 0.454414C40.3656 0.439054 41.0696 0.423693 41.7949 0.407867C47.1881 0.423284 51.7294 1.67114 55.7851 5.3867C60.2222 10.1104 60.8931 14.8213 60.8547 21.0705C60.8567 21.7728 60.8586 22.4752 60.8606 23.1988C60.862 24.6789 60.8583 26.159 60.8498 27.6391C60.8389 29.8934 60.8497 32.1469 60.8627 34.4012C60.8613 35.8442 60.8587 37.2871 60.8547 38.7301C60.8588 39.3986 60.8629 40.0672 60.8672 40.756C60.8098 46.4477 59.6369 50.9982 55.7146 55.2833C51.954 58.6143 47.688 60.4917 42.6787 60.5566C42.0903 60.5653 41.5019 60.574 40.8957 60.5829C40.264 60.5879 39.6323 60.593 38.9814 60.5981C37.9961 60.6063 37.9961 60.6063 36.9908 60.6147C35.6 60.624 34.2091 60.6313 32.8183 60.6367C31.4042 60.6444 29.9901 60.6583 28.5761 60.6783C26.5249 60.7074 24.4743 60.7182 22.4229 60.7252C21.7994 60.737 21.1759 60.7489 20.5335 60.7611C15.2619 60.7437 10.424 59.4211 6.16612 56.2017C3.61212 53.5883 1.04968 50.833 0.867188 47.0543C0.896885 46.5512 0.926582 46.0481 0.957179 45.5298C8.89074 44.9025 8.89074 44.9025 10.9622 46.3873C11.7245 47.4342 12.4404 48.5144 13.1537 49.5953C16.4896 51.1198 19.6367 51.1583 23.2302 51.1543C24.0845 51.1586 24.0845 51.1586 24.9561 51.1631C26.156 51.1669 27.3559 51.1673 28.5557 51.1643C30.3818 51.1622 32.2072 51.1781 34.0332 51.1953C35.2035 51.1968 36.3738 51.1973 37.5442 51.1966C38.085 51.2028 38.6258 51.2091 39.183 51.2155C42.6702 51.187 45.3034 50.7105 48.3882 48.9177C51.5237 45.5729 51.506 42.4249 51.4823 38.0763C51.4865 37.43 51.4907 36.7836 51.4951 36.1177C51.4999 34.7554 51.4977 33.3932 51.4891 32.031C51.4797 29.9516 51.5028 27.8743 51.5286 25.7951C51.5293 24.4681 51.528 23.1412 51.5247 21.8143C51.5337 21.1958 51.5426 20.5774 51.5519 19.9403C51.5092 17.0042 51.3657 14.9748 49.505 12.6245C47.1768 10.4815 45.5813 10.2132 42.5344 10.1669C41.8992 10.1556 41.2639 10.1443 40.6094 10.1326C39.9254 10.1234 39.2414 10.1142 38.5367 10.1047C37.4832 10.086 37.4832 10.086 36.4083 10.0669C33.398 10.0135 30.3875 9.96758 27.3771 9.9211C25.1821 9.88615 22.9873 9.84733 20.7924 9.80828C19.7624 9.79448 19.7624 9.79448 18.7114 9.7804C18.0805 9.76907 17.4495 9.75775 16.7994 9.74608C16.2413 9.73759 15.6832 9.7291 15.1081 9.72035C13.8313 9.61771 13.8313 9.61771 13.1537 8.94012C13.087 7.69935 13.0658 6.45595 13.069 5.2134C13.0673 4.5356 13.0655 3.8578 13.0637 3.15946C13.2174 0.303773 14.3492 0.716891 16.9107 0.678401Z"
        fill="black" />
    <path
        d="M25.3079 12.7357C26.1936 12.733 27.0793 12.7304 27.9918 12.7277C28.4484 12.732 28.905 12.7362 29.3754 12.7406C30.7675 12.7515 32.1581 12.7407 33.5501 12.7277C34.8786 12.7317 34.8786 12.7317 36.234 12.7357C37.0384 12.738 37.8429 12.7402 38.6717 12.7426C41.2077 13.0374 42.8355 13.7004 45.0003 15.0384C47.5523 19.0366 47.5043 23.2753 47.033 27.9125C46.3114 30.7499 45.4695 32.3428 42.9675 34.0108C41.3061 34.1646 41.3061 34.1646 39.3599 34.1431C38.315 34.1366 38.315 34.1366 37.2491 34.1299C36.5228 34.1186 35.7965 34.1072 35.0482 34.0955C34.3141 34.0894 33.58 34.0833 32.8236 34.077C31.0099 34.061 29.1965 34.0387 27.383 34.0108C27.3648 32.8957 27.3516 31.7804 27.3407 30.6652C27.3328 30.0442 27.325 29.4232 27.3169 28.7833C27.383 27.2349 27.383 27.2349 28.0606 26.5574C29.8878 26.5078 31.6972 26.4947 33.5237 26.515C34.0377 26.5181 34.5517 26.5211 35.0813 26.5243C36.3549 26.5323 37.6285 26.5444 38.902 26.5574C38.902 24.7685 38.902 22.9797 38.902 21.1367C33.5355 21.1367 28.169 21.1367 22.6399 21.1367C22.6399 27.174 22.6399 33.2112 22.6399 39.4315C24.2305 39.4158 25.821 39.4 27.4598 39.3838C29.0004 39.3733 30.541 39.365 32.0816 39.357C33.1523 39.3502 34.2229 39.341 35.2936 39.3293C36.8325 39.3128 38.3714 39.3051 39.9104 39.2991C40.389 39.2922 40.8677 39.2852 41.3608 39.278C43.8633 39.2774 44.8913 39.3588 47.033 40.7867C47.2554 42.0571 47.2554 42.0571 47.2024 43.497C47.1919 43.9722 47.1815 44.4473 47.1707 44.9369C47.033 46.2073 47.033 46.2073 46.3554 47.5625C42.6665 47.6297 38.9779 47.6788 35.2884 47.7114C34.0344 47.725 32.7805 47.7435 31.5266 47.767C29.7201 47.8 27.9141 47.8153 26.1073 47.8272C25.5502 47.8412 24.9932 47.8552 24.4192 47.8696C20.8031 47.871 18.6934 47.3166 15.8641 44.8522C14.0737 42.5104 14.3014 39.8145 14.3051 36.9805C14.3022 36.4827 14.2993 35.9848 14.2963 35.4718C14.2924 34.4205 14.2921 33.3692 14.295 32.3178C14.2971 30.7176 14.2813 29.1183 14.2641 27.5182C14.2625 26.4938 14.2621 25.4695 14.2627 24.4452C14.2565 23.9708 14.2503 23.4963 14.2438 23.0075C14.2733 19.8524 14.7472 17.6491 16.5417 15.0384C19.4615 13.0768 21.8337 12.7456 25.3079 12.7357Z"
        fill="#D13543" />
    <path
        d="M11.4174 59.4626C16.6331 60.6619 16.6331 60.6619 18.5744 62.4694C18.8709 64.2057 18.8709 64.2057 18.5744 65.8573C17.2193 67.2125 17.2193 67.2125 15.1441 67.4243C12.0018 67.1749 9.18406 66.664 6.37788 65.1798C5.31915 63.3587 5.31915 63.3587 5.02271 61.7918C6.80678 58.9033 8.30439 58.9382 11.4174 59.4626Z"
        fill="black" />
    <path
        d="M55.1641 59.7591C55.8417 60.4366 55.8417 60.4366 55.884 62.5118C55.87 63.1686 55.8561 63.8254 55.8417 64.5022C51.8263 66.2447 48.8106 67.4573 44.3227 67.2125C42.9675 65.8573 42.9675 65.8573 42.6711 64.2057C42.9675 62.4694 42.9675 62.4694 44.3227 61.326C47.8982 59.7617 51.3075 58.4735 55.1641 59.7591Z"
        fill="black" />
</svg>